HIERARCHY
ROOT joint_Root
{
  OFFSET 0 0 0
  CHANNELS 6 Xposition Yposition Zposition Zrotation Xrotation Yrotation
  JOINT Hips
  {
    OFFSET 0.847027 93.984 -452.225
    CHANNELS 6 Xposition Yposition Zposition Zrotation Xrotation Yrotation
    JOINT Spine
    {
      OFFSET 15.7357 0 0
      CHANNELS 6 Xposition Yposition Zposition Zrotation Xrotation Yrotation
      JOINT Chest
      {
        OFFSET 8.98455 -0.406207 0
        CHANNELS 6 Xposition Yposition Zposition Zrotation Xrotation Yrotation
        JOINT Neck
        {
          OFFSET 16.3773 0 0
          CHANNELS 6 Xposition Yposition Zposition Zrotation Xrotation Yrotation
          JOINT Head
          {
            OFFSET 6.45672 0 0
            CHANNELS 6 Xposition Yposition Zposition Zrotation Xrotation Yrotation
            End Site
            {
              OFFSET 0 0 0
            }
          }
        }
        JOINT Shoulder_L
        {
          OFFSET 12.9942 -0.242716 4.98039
          CHANNELS 6 Xposition Yposition Zposition Zrotation Xrotation Yrotation
          JOINT UpperArm_L
          {
            OFFSET 5.34809 0 0
            CHANNELS 6 Xposition Yposition Zposition Zrotation Xrotation Yrotation
            JOINT LowerArm_L
            {
              OFFSET 24.3286 1.87007e-05 0
              CHANNELS 6 Xposition Yposition Zposition Zrotation Xrotation Yrotation
              JOINT Hand_L
              {
                OFFSET 22.2916 0 0
                CHANNELS 6 Xposition Yposition Zposition Zrotation Xrotation Yrotation
                End Site
                {
                  OFFSET 0 0 0
                }
              }
            }
          }
        }
        JOINT Shoulder_R
        {
          OFFSET 12.9945 -0.242716 -4.98039
          CHANNELS 6 Xposition Yposition Zposition Zrotation Xrotation Yrotation
          JOINT UpperArm_R
          {
            OFFSET -5.34813 0 0
            CHANNELS 6 Xposition Yposition Zposition Zrotation Xrotation Yrotation
            JOINT LowerArm_R
            {
              OFFSET -24.3289 0.000322201 0
              CHANNELS 6 Xposition Yposition Zposition Zrotation Xrotation Yrotation
              JOINT Hand_R
              {
                OFFSET -22.2915 -0.000108084 0
                CHANNELS 6 Xposition Yposition Zposition Zrotation Xrotation Yrotation
                End Site
                {
                  OFFSET 0 0 0
                }
              }
            }
          }
        }
      }
    }
    JOINT UpperLeg_L
    {
      OFFSET -2.19248 -6.46944 0
      CHANNELS 6 Xposition Yposition Zposition Zrotation Xrotation Yrotation
      JOINT LowerLeg_L
      {
        OFFSET 39.0811 0 -1.23785e-05
        CHANNELS 6 Xposition Yposition Zposition Zrotation Xrotation Yrotation
        JOINT Foot_L
        {
          OFFSET 40.9854 0 -1.26872e-05
          CHANNELS 6 Xposition Yposition Zposition Zrotation Xrotation Yrotation
          JOINT Toes_L
          {
            OFFSET 11.7543 0 0
            CHANNELS 6 Xposition Yposition Zposition Zrotation Xrotation Yrotation
            End Site
            {
              OFFSET 0 0 0
            }
          }
        }
      }
    }
    JOINT UpperLeg_R
    {
      OFFSET -2.19251 6.46944 0
      CHANNELS 6 Xposition Yposition Zposition Zrotation Xrotation Yrotation
      JOINT LowerLeg_R
      {
        OFFSET -39.0811 -0.00228153 -0.0401928
        CHANNELS 6 Xposition Yposition Zposition Zrotation Xrotation Yrotation
        JOINT Foot_R
        {
          OFFSET -40.9854 0 0
          CHANNELS 6 Xposition Yposition Zposition Zrotation Xrotation Yrotation
          JOINT Toes_R
          {
            OFFSET -11.7543 0 0
            CHANNELS 6 Xposition Yposition Zposition Zrotation Xrotation Yrotation
            End Site
            {
              OFFSET 0 0 0
            }
          }
        }
      }
    }
  }
}
MOTION
Frames:	8
Frame Time:	0.0333333
0 0 0 0 0 -0 -0.576921 93.527 -24.5061 88.9515 -0.272565 -53.1924 15.7357 5.1072e-06 -5.51765e-07 89.3611 79.7132 -88.4611 8.98455 -0.406207 -4.3199e-07 12.8086 -0.187626 1.82111 16.3773 -1.3905e-06 -6.99897e-07 13.2243 -1.52897 -0.728048 6.45672 -1.25837e-06 -1.02172e-07 13.1887 -1.87499 -0.412023 12.9942 -0.242716 4.98039 -91.1219 7.07836 -95.97 5.34809 -7.22636e-06 -6.2814e-07 -57.5595 56.9347 -17.5633 24.3286 1.87007e-05 4.90208e-06 2.71118 1.22465 -65.7087 22.2916 -9.88446e-07 4.63217e-06 0.903674 5.39314 -2.71562 12.9945 -0.242716 -4.98039 89.2993 6.86669 -99.1592 -5.34813 -1.25947e-06 -3.79883e-06 -68.5753 42.7507 -5.14386 -24.3289 0.000322201 -8.65921e-06 32.4283 7.41417 -78.5194 -22.2915 -0.000108084 -4.47941e-06 3.61608 5.41809 -3.5349 -2.19248 -6.46944 -1.22533e-07 -174.937 -1.8174 -66.2064 39.0811 -6.73843e-06 -1.23785e-05 -0.00694449 0.0153537 0.0573388 40.9854 -6.48686e-06 -1.26872e-05 -3.0709 -4.74539 -38.7044 11.7543 -2.30145e-07 3.05095e-06 -0.0352344 0.0532839 -15.6175 -2.19251 6.46944 -1.45247e-06 -164.418 8.27085 113.031 -39.0811 -0.00228153 -0.0401928 0.00257789 -0.0312406 0.0149506 -40.9854 7.72618e-06 5.99936e-06 0.0963844 5.77929 -37.7355 -11.7543 -5.6619e-06 -5.58687e-06 -0.138402 0.149886 -15.0731 
0 0 0 0 0 -0 -0.601073 93.5176 -24.5662 88.9186 -0.241931 -53.1953 15.7357 5.1072e-06 -5.51765e-07 89.3647 79.7044 -88.4536 8.98455 -0.406207 -4.3199e-07 12.826 -0.185912 1.84314 16.3773 -1.3905e-06 -6.99897e-07 13.3166 -1.56171 -0.760063 6.45672 -1.25837e-06 -1.02172e-07 12.9204 -1.93672 -0.377745 12.9942 -0.242716 4.98039 -91.1267 7.08992 -95.9472 5.34809 -7.22636e-06 -6.2814e-07 -57.6277 56.8603 -17.5184 24.3286 1.87007e-05 4.90208e-06 2.76446 1.24837 -65.7156 22.2916 -9.88446e-07 4.63217e-06 0.90065 5.39475 -2.76779 12.9945 -0.242716 -4.98039 89.2941 6.87401 -99.1228 -5.34813 -1.25947e-06 -3.79883e-06 -68.5266 42.7429 -5.22656 -24.3289 0.000322201 -8.65921e-06 32.3817 7.40127 -78.5187 -22.2915 -0.000108084 -4.47941e-06 3.54762 5.41644 -3.48017 -2.19248 -6.46944 -1.22534e-07 -175.001 -1.88721 -66.2471 39.0811 -6.73843e-06 -1.23785e-05 0.00178747 0.0169337 0.055529 40.9854 -6.48686e-06 -1.26872e-05 -3.11876 -4.64553 -38.6531 11.7543 -2.30145e-07 3.05095e-06 -0.0336071 0.0508836 -15.6611 -2.19251 6.46944 -1.45247e-06 -164.474 8.1876 112.998 -39.0811 -0.00228153 -0.0401928 0.00256829 -0.031512 0.0338863 -40.9854 7.72618e-06 5.99936e-06 0.176406 5.64822 -37.7055 -11.7543 -5.6619e-06 -5.58687e-06 -0.144759 0.156573 -15.0053 
0 0 0 0 0 -0 -0.630456 93.4889 -24.6296 88.8884 -0.185985 -53.1127 15.7357 5.1072e-06 -5.51765e-07 89.3447 79.6812 -88.4137 8.98455 -0.406207 -4.3199e-07 12.8726 -0.19229 1.88373 16.3773 -1.3905e-06 -6.99897e-07 13.4142 -1.58721 -0.785591 6.45672 -1.25837e-06 -1.02172e-07 12.6002 -1.92397 -0.401994 12.9942 -0.242716 4.98039 -91.1299 7.12014 -95.9593 5.34809 -7.22636e-06 -6.2814e-07 -57.6171 56.7794 -17.5031 24.3286 1.87007e-05 4.90208e-06 2.83207 1.27458 -65.7883 22.2916 -9.88446e-07 4.63217e-06 0.881899 5.39203 -2.67984 12.9945 -0.242716 -4.98039 89.2869 6.89355 -99.0801 -5.34813 -1.25947e-06 -3.79883e-06 -68.4863 42.7235 -5.25865 -24.3289 0.000322201 -8.65921e-06 32.323 7.34747 -78.5743 -22.2915 -0.000108084 -4.47941e-06 3.48664 5.41408 -3.40078 -2.19248 -6.46944 -1.22533e-07 -174.925 -1.90615 -66.1888 39.0811 -6.73843e-06 -1.23785e-05 -0.00266856 0.0173641 0.0027818 40.9854 -6.48686e-06 -1.26872e-05 -3.15098 -4.63196 -38.5909 11.7543 -2.30145e-07 3.05095e-06 -0.0347548 0.0525931 -15.6302 -2.19251 6.46944 -1.45247e-06 -164.424 8.18007 113.028 -39.0811 -0.00228153 -0.0401928 0.00255613 -0.0317191 0.0661703 -40.9854 7.72618e-06 5.99936e-06 0.215241 5.66037 -37.6756 -11.7543 -5.6619e-06 -5.58687e-06 -0.143144 0.154872 -15.0225 
0 0 0 0 0 -0 -0.662775 93.4842 -24.6893 88.8842 -0.170228 -52.9399 15.7357 5.1072e-06 -5.51765e-07 89.3041 79.696 -88.371 8.98455 -0.406207 -4.3199e-07 12.8429 -0.206592 1.88924 16.3773 -1.3905e-06 -6.99897e-07 13.5442 -1.58105 -0.870268 6.45672 -1.25837e-06 -1.02172e-07 12.5559 -1.87858 -0.35351 12.9942 -0.242716 4.98039 -91.1301 7.12313 -95.9608 5.34809 -7.22636e-06 -6.2814e-07 -57.6834 56.6822 -17.4592 24.3286 1.87007e-05 4.90208e-06 2.82536 1.27177 -65.7846 22.2916 -9.88446e-07 4.63217e-06 0.832249 5.39375 -2.7354 12.9945 -0.242716 -4.98039 89.2868 6.90512 -99.0887 -5.34813 -1.25947e-06 -3.79883e-06 -68.4829 42.6735 -5.2862 -24.3289 0.000322201 -8.65921e-06 32.2932 7.37646 -78.5178 -22.2915 -0.000108084 -4.47941e-06 3.42652 5.41514 -3.43588 -2.19248 -6.46944 -1.22534e-07 -175.103 -2.00685 -66.1034 39.0811 -6.73843e-06 -1.23785e-05 -0.00936742 0.018794 0.0793227 40.9854 -6.48686e-06 -1.26872e-05 -3.18614 -4.4445 -38.5899 11.7543 -2.30145e-07 3.05095e-06 -0.0367732 0.0555784 -15.5761 -2.19251 6.46944 -1.45247e-06 -164.433 8.20841 113.149 -39.0811 -0.00228153 -0.0401928 0.00252323 -0.031482 0.0985219 -40.9854 7.72618e-06 5.99936e-06 0.183258 5.66007 -37.6485 -11.7543 -5.6619e-06 -5.58687e-06 -0.140789 0.152392 -15.0477 
0 0 0 0 0 -0 -0.713273 93.4709 -24.7196 88.8413 -0.104939 -52.4871 15.7357 5.1072e-06 -5.51765e-07 89.3245 79.6893 -88.3619 8.98455 -0.406207 -4.3199e-07 12.8564 -0.198028 1.94748 16.3773 -1.3905e-06 -6.99897e-07 13.8939 -1.54532 -0.951944 6.45672 -1.25837e-06 -1.02172e-07 12.2404 -1.8512 -0.319868 12.9942 -0.242716 4.98039 -91.1173 7.11136 -96.0473 5.34809 -7.22636e-06 -6.2814e-07 -57.707 56.5189 -17.5265 24.3286 1.87007e-05 4.90208e-06 2.85938 1.29316 -65.6851 22.2916 -9.88446e-07 4.63217e-06 0.875948 5.39697 -2.83886 12.9945 -0.242716 -4.98039 89.2939 6.90445 -99.1468 -5.34813 -1.25947e-06 -3.79883e-06 -68.4474 42.5319 -5.36644 -24.3289 0.000322201 -8.65921e-06 32.0914 7.37422 -78.4335 -22.2915 -0.000108084 -4.47941e-06 3.27768 5.41316 -3.36985 -2.19248 -6.46944 -1.22533e-07 -175.377 -2.16659 -65.686 39.0811 -6.73843e-06 -1.23785e-05 0.00218186 0.0198593 0.0927809 40.9854 -6.48686e-06 -1.26872e-05 -3.21828 -4.01682 -38.5342 11.7543 -2.30145e-07 3.05095e-06 -0.0353114 0.0534012 -15.6154 -2.19251 6.46944 -1.45247e-06 -164.401 8.30685 113.606 -39.0811 -0.00228153 -0.0401928 0.00240353 -0.0314081 0.0512042 -40.9854 7.72618e-06 5.99936e-06 0.193043 5.69103 -37.5831 -11.7543 -5.6619e-06 -5.58687e-06 -0.140404 0.151982 -15.0517 
0 0 0 0 0 -0 -0.773338 93.4786 -24.6929 88.8355 -0.0683961 -51.6644 15.7357 5.1072e-06 -5.51765e-07 89.3116 79.6984 -88.3134 8.98455 -0.406207 -4.3199e-07 12.8383 -0.200994 2.01896 16.3773 -1.3905e-06 -6.99897e-07 14.2622 -1.46711 -0.976127 6.45672 -1.25837e-06 -1.02172e-07 11.7818 -1.72033 -0.467958 12.9942 -0.242716 4.98039 -91.1153 7.15035 -96.111 5.34809 -7.22636e-06 -6.2814e-07 -57.6157 56.3717 -17.6728 24.3286 1.87007e-05 4.90208e-06 2.93711 1.33672 -65.5496 22.2916 -9.88446e-07 4.63217e-06 0.916561 5.39635 -2.81915 12.9945 -0.242716 -4.98039 89.3043 6.8163 -99.1584 -5.34813 -1.25947e-06 -3.79883e-06 -68.2816 42.5563 -5.67777 -24.3289 0.000322201 -8.65921e-06 31.8432 7.44974 -78.2089 -22.2915 -0.000108084 -4.47941e-06 3.31233 5.41068 -3.28746 -2.19248 -6.46944 -1.22534e-07 -175.883 -2.39894 -64.8669 39.0811 -6.73843e-06 -1.23785e-05 0.00540794 0.0192687 0.116876 40.9854 -6.48686e-06 -1.26872e-05 -3.28549 -3.401 -38.5778 11.7543 -2.30145e-07 3.05095e-06 -0.0381282 0.0576016 -15.5394 -2.19251 6.46944 -1.45247e-06 -164.398 8.55524 114.45 -39.0811 -0.00228153 -0.0401928 0.0022303 -0.0312964 0.00802551 -40.9854 7.72618e-06 5.99936e-06 0.245575 5.77848 -37.5767 -11.7543 -5.6619e-06 -5.58687e-06 -0.138872 0.15037 -15.0682 
0 0 0 0 0 -0 -0.820935 93.5143 -24.5515 88.8727 -0.059026 -50.2816 15.7357 5.1072e-06 -5.51765e-07 89.2126 79.7334 -88.1829 8.98455 -0.406207 -4.3199e-07 12.7685 -0.234578 2.08553 16.3773 -1.3905e-06 -6.99897e-07 14.1724 -1.39088 -1.09527 6.45672 -1.25837e-06 -1.02172e-07 11.648 -1.51901 -0.576436 12.9942 -0.242716 4.98039 -91.1142 7.21459 -96.1964 5.34809 -7.22636e-06 -6.2814e-07 -57.7029 56.1662 -17.5983 24.3286 1.87007e-05 4.90208e-06 2.98261 1.36886 -65.3689 22.2916 -9.88446e-07 4.63217e-06 0.891099 5.39679 -2.83305 12.9945 -0.242716 -4.98039 89.3142 6.78822 -99.2167 -5.34813 -1.25947e-06 -3.79883e-06 -68.0902 42.5779 -5.95062 -24.3289 0.000322201 -8.65921e-06 31.4535 7.54898 -77.8793 -22.2915 -0.000108084 -4.47941e-06 3.26015 5.40877 -3.22491 -2.19248 -6.46944 -1.22533e-07 -176.154 -2.48545 -63.4066 39.0811 -6.73843e-06 -1.23785e-05 -0.0211674 0.0171338 0.133994 40.9854 -6.48686e-06 -1.26872e-05 -3.34047 -3.05863 -38.6676 11.7543 -2.30145e-07 3.05095e-06 -0.0396895 0.0599164 -15.4975 -2.19251 6.46944 -1.45247e-06 -164.514 9.03003 115.889 -39.0811 -0.00228153 -0.0401928 0.0020225 -0.030646 0.00788016 -40.9854 7.72618e-06 5.99936e-06 0.217717 5.89949 -37.6506 -11.7543 -5.6619e-06 -5.58687e-06 -0.134964 0.146266 -15.1098 
0 0 0 0 0 -0 -0.862596 93.584 -24.2698 88.9057 -0.144376 -48.3519 15.7357 5.1072e-06 -5.51765e-07 89.2054 79.8418 -88.1553 8.98455 -0.406207 -4.3199e-07 12.5515 -0.235321 2.12584 16.3773 -1.3905e-06 -6.99897e-07 13.6982 -1.24908 -1.02734 6.45672 -1.25837e-06 -1.02172e-07 10.9987 -1.37943 -1.05767 12.9942 -0.242716 4.98039 -91.1322 7.30948 -96.1703 5.34809 -7.22636e-06 -6.2814e-07 -57.7687 56.0547 -17.5813 24.3286 1.87007e-05 4.90208e-06 3.03485 1.41936 -64.9587 22.2916 -9.88446e-07 4.63217e-06 0.899745 5.39844 -2.88694 12.9945 -0.242716 -4.98039 89.3216 6.75647 -99.2523 -5.34813 -1.25947e-06 -3.79883e-06 -67.9506 42.6976 -6.22823 -24.3289 0.000322201 -8.65921e-06 30.8299 7.75802 -77.2562 -22.2915 -0.000108084 -4.47941e-06 3.28734 5.41251 -3.34767 -2.19248 -6.46944 -1.22534e-07 -176.409 -2.53334 -61.2512 39.0811 -6.73843e-06 -1.23785e-05 -0.00081794 0.014316 0.144058 40.9854 -6.48686e-06 -1.26872e-05 -3.42088 -2.7452 -38.8936 11.7543 -2.30145e-07 3.05095e-06 -0.0394784 0.05959 -15.5034 -2.19251 6.46944 -1.45247e-06 -164.959 9.52547 118.018 -39.0811 -0.00228153 -0.0401928 0.00197915 -0.0305904 -0.01691 -40.9854 7.72618e-06 5.99936e-06 0.288298 5.87914 -37.8273 -11.7543 -5.6619e-06 -5.58687e-06 -0.129668 0.140646 -15.1666 
